<?xml version="1.0" encoding="UTF-8" standalone="no"?>
<!-- Created with Inkscape (http://www.inkscape.org/) -->

<svg
   xmlns:dc="http://purl.org/dc/elements/1.1/"
   xmlns:cc="http://creativecommons.org/ns#"
   xmlns:rdf="http://www.w3.org/1999/02/22-rdf-syntax-ns#"
   xmlns:svg="http://www.w3.org/2000/svg"
   xmlns="http://www.w3.org/2000/svg"
   xmlns:sodipodi="http://sodipodi.sourceforge.net/DTD/sodipodi-0.dtd"
   xmlns:inkscape="http://www.inkscape.org/namespaces/inkscape"
   width="210mm"
   height="297mm"
   viewBox="0 0 210 297"
   version="1.1"
   id="svg5888"
   inkscape:version="0.92.0 r15299"
   sodipodi:docname="barrel-window.svg">
  <defs
     id="defs5882" />
  <sodipodi:namedview
     id="base"
     pagecolor="#ffffff"
     bordercolor="#666666"
     borderopacity="1.0"
     inkscape:pageopacity="0.0"
     inkscape:pageshadow="2"
     inkscape:zoom="0.35"
     inkscape:cx="-87.142857"
     inkscape:cy="560"
     inkscape:document-units="mm"
     inkscape:current-layer="layer1"
     showgrid="false"
     inkscape:window-width="1920"
     inkscape:window-height="1017"
     inkscape:window-x="-8"
     inkscape:window-y="-8"
     inkscape:window-maximized="1" />
  <metadata
     id="metadata5885">
    <rdf:RDF>
      <cc:Work
         rdf:about="">
        <dc:format>image/svg+xml</dc:format>
        <dc:type
           rdf:resource="http://purl.org/dc/dcmitype/StillImage" />
        <dc:title></dc:title>
      </cc:Work>
    </rdf:RDF>
  </metadata>
  <g
     inkscape:label="Layer 1"
     inkscape:groupmode="layer"
     id="layer1">
    <path
       style="display:inline;opacity:0.9;fill:#6666cc;fill-opacity:1;stroke:none;stroke-width:0.56444448;stroke-miterlimit:4;stroke-dasharray:none;stroke-opacity:1"
       d="m 116.89968,112.70094 c -0.0547,5.3e-4 -0.10951,0.004 -0.16381,0.0108 h -8.24446 c -0.039,-0.003 -0.0781,-0.005 -0.11731,-0.005 -0.78303,2e-5 -1.41806,0.60449 -1.418,1.35031 10e-6,0.0129 0.007,0.0234 0.008,0.0362 h 5.2e-4 c 0.0247,0.71728 0.62973,1.29672 1.38855,1.30742 2.97384,0.0309 6.01933,0.0157 8.54677,-0.005 0.76541,-2e-5 1.38059,-0.58016 1.40818,-1.30277 h 5.3e-4 c 5e-4,-0.0147 0.009,-0.027 0.009,-0.0419 6e-5,-0.74582 -0.63497,-1.35029 -1.418,-1.35031 z"
       id="rect4355-3-4"
       inkscape:connector-curvature="0" />
  </g>
</svg>
