<?xml version="1.0" encoding="UTF-8" standalone="no"?>
<!-- Created with Inkscape (http://www.inkscape.org/) -->

<svg
   xmlns:dc="http://purl.org/dc/elements/1.1/"
   xmlns:cc="http://creativecommons.org/ns#"
   xmlns:rdf="http://www.w3.org/1999/02/22-rdf-syntax-ns#"
   xmlns:svg="http://www.w3.org/2000/svg"
   xmlns="http://www.w3.org/2000/svg"
   xmlns:sodipodi="http://sodipodi.sourceforge.net/DTD/sodipodi-0.dtd"
   xmlns:inkscape="http://www.inkscape.org/namespaces/inkscape"
   width="210mm"
   height="297mm"
   viewBox="0 0 210 297"
   version="1.1"
   id="svg4673"
   inkscape:version="0.92.0 r15299"
   sodipodi:docname="window_suround.svg">
  <defs
     id="defs4667" />
  <sodipodi:namedview
     id="base"
     pagecolor="#ffffff"
     bordercolor="#666666"
     borderopacity="1.0"
     inkscape:pageopacity="0.0"
     inkscape:pageshadow="2"
     inkscape:zoom="5.6"
     inkscape:cx="348.90066"
     inkscape:cy="656.27571"
     inkscape:document-units="mm"
     inkscape:current-layer="layer1"
     showgrid="false"
     inkscape:window-width="1920"
     inkscape:window-height="1017"
     inkscape:window-x="-8"
     inkscape:window-y="-8"
     inkscape:window-maximized="1" />
  <metadata
     id="metadata4670">
    <rdf:RDF>
      <cc:Work
         rdf:about="">
        <dc:format>image/svg+xml</dc:format>
        <dc:type
           rdf:resource="http://purl.org/dc/dcmitype/StillImage" />
        <dc:title></dc:title>
      </cc:Work>
    </rdf:RDF>
  </metadata>
  <g
     inkscape:label="Layer 1"
     inkscape:groupmode="layer"
     id="layer1">
    <path
       style="display:inline;opacity:1;fill:#8e898e;fill-opacity:1;stroke:none;stroke-width:2.41889739;stroke-miterlimit:4;stroke-dasharray:none;stroke-dashoffset:0;stroke-opacity:0.97989951"
       d="m 397.81836,399.27539 c 7.6e-4,0.0496 0.003,0.0969 0.004,0.14649 4.89729,-0.0221 6.33577,-0.0643 -0.004,-0.14649 z m 0.004,0.14649 c -17.22972,0.0776 -85.94336,-0.13868 -85.94336,-0.13868 l -0.008,75.05078 53.4336,-12.89843 c 36.99212,-12.91455 32.93128,-35.97414 32.51758,-62.01367 z m -40.61524,1.05664 c 0.92621,-4e-5 1.85185,0.0461 2.77344,0.13867 0.92104,0.0922 1.83689,0.23053 2.74414,0.41406 0.90738,0.18406 1.805,0.41364 2.68945,0.6875 0.88445,0.27326 1.75468,0.59087 2.60742,0.95117 0.85298,0.36095 1.68735,0.76455 2.5,1.20899 0.81273,0.4433 1.60276,0.927 2.36719,1.44921 0.7639,0.52336 1.50114,1.08463 2.20899,1.68165 0.70815,0.59599 1.3861,1.22697 2.03125,1.89062 0.64507,0.66433 1.25652,1.3605 1.83203,2.08594 0.57573,0.72518 1.11478,1.47877 1.61523,2.25781 0.50011,0.77923 0.96099,1.58298 1.38086,2.4082 0.42032,0.8256 0.79903,1.67169 1.13477,2.53516 0.33524,0.86245 0.62736,1.74118 0.875,2.63281 0.24756,0.89231 0.45023,1.79642 0.60742,2.70899 0.15798,0.91241 0.26979,1.83222 0.33594,2.75586 0.0461,0.65393 0.0687,1.30928 0.0684,1.96484 0,0.92553 -0.0465,1.85056 -0.13868,2.77148 -0.0922,0.92172 -0.23018,1.83818 -0.41406,2.7461 -0.18406,0.90735 -0.41363,1.805 -0.6875,2.68945 -0.27326,0.88445 -0.59083,1.75469 -0.95117,2.60742 -0.36057,0.85293 -0.76324,1.68729 -1.20703,2.5 -0.44395,0.81275 -0.92831,1.60286 -1.45117,2.36719 -0.52339,0.76392 -1.08463,1.50116 -1.68164,2.20898 -0.59596,0.70818 -1.22697,1.38609 -1.89063,2.03126 -0.66434,0.64505 -1.36052,1.25648 -2.08594,1.83203 -0.72521,0.57569 -1.47875,1.11478 -2.25781,1.61523 -0.77921,0.50015 -1.58295,0.96103 -2.4082,1.38086 -0.82496,0.42025 -1.67042,0.79899 -2.53321,1.13477 -0.86312,0.33524 -1.74247,0.62744 -2.63476,0.875 -0.89231,0.24755 -1.79642,0.45023 -2.70899,0.60742 -0.91248,0.15723 -1.83224,0.2686 -2.75585,0.33398 -0.65392,0.0465 -1.30929,0.0699 -1.96485,0.0703 -0.92557,0 -1.85054,-0.0461 -2.77148,-0.13867 -0.92173,-0.093 -1.83824,-0.23169 -2.7461,-0.41601 -0.90733,-0.18369 -1.80496,-0.41233 -2.68945,-0.68555 -0.88449,-0.27402 -1.75472,-0.59214 -2.60742,-0.95313 -0.85293,-0.36056 -1.68731,-0.76323 -2.5,-1.20703 -0.8121,-0.44398 -1.6015,-0.92835 -2.36524,-1.45117 -0.76453,-0.52267 -1.50242,-1.08328 -2.21093,-1.67969 -0.70822,-0.59659 -1.38615,-1.22821 -2.03125,-1.89257 -0.64501,-0.66369 -1.25647,-1.35926 -1.83204,-2.08399 -0.57577,-0.72586 -1.11486,-1.48005 -1.61523,-2.25976 -0.5001,-0.77855 -0.96094,-1.58167 -1.38086,-2.40625 -0.41964,-0.82564 -0.79771,-1.67176 -1.13281,-2.53516 -0.33608,-0.86309 -0.62875,-1.74242 -0.87695,-2.63477 -0.24745,-0.89166 -0.45018,-1.79514 -0.60743,-2.70703 -0.15719,-0.91249 -0.26863,-1.83225 -0.33398,-2.75586 -0.0466,-0.65389 -0.0701,-1.30928 -0.0703,-1.96484 -5e-5,-0.92621 0.0462,-1.85184 0.13867,-2.77344 0.0928,-0.92107 0.23169,-1.83694 0.41601,-2.74414 0.18354,-0.90735 0.41234,-1.80497 0.68555,-2.68945 0.27405,-0.88452 0.59214,-1.75472 0.95313,-2.60742 0.36041,-0.85297 0.76325,-1.68733 1.20703,-2.5 0.44394,-0.81279 0.92828,-1.60282 1.45117,-2.36719 0.52273,-0.76388 1.08333,-1.50112 1.67969,-2.20898 0.5966,-0.70821 1.22824,-1.38613 1.89258,-2.03126 0.66433,-0.64505 1.36051,-1.25652 2.08593,-1.83203 0.72522,-0.57573 1.47875,-1.11478 2.25781,-1.61523 0.77923,-0.50015 1.58295,-0.96099 2.40821,-1.38086 0.82496,-0.42025 1.67042,-0.79899 2.5332,-1.13477 0.86313,-0.33524 1.74247,-0.62744 2.63477,-0.875 0.89166,-0.24755 1.79512,-0.45019 2.70703,-0.60742 0.91248,-0.15723 1.83224,-0.2686 2.75586,-0.33398 0.6539,-0.0465 1.30927,-0.0703 1.96484,-0.0703 z"
       transform="scale(0.26458333)"
       id="rect4710"
       inkscape:connector-curvature="0" />
  </g>
</svg>
